<?xml version="1.0" encoding="UTF-8"?>
<svg id="Layer_1" data-name="Layer 1" xmlns="http://www.w3.org/2000/svg" viewBox="0 0 903.92 255.1">
  <defs>
    <style>
      .cls-1 {
        fill: #fff;
      }

      .cls-2 {
        fill: #ffc223;
      }
    </style>
  </defs>
  <g>
    <path class="cls-1" d="M.07,204.21h7.6l11.35,34,11.24-34h7.28v40.73h-4.94v-34.65l-11.46,34.65h-4.94l-11.51-34.92v34.92H.07v-40.73Z"/>
    <path class="cls-1" d="M63.72,245.6c-9.18,0-16.02-5.54-16.02-15.64s6.46-15.97,14.56-15.97,13.63,5.6,12.82,16.84h-22.43c.33,6.95,4.78,10.54,11.41,10.54,3.97,0,7.66-1.19,9.89-3.26v4.51c-1.41,1.36-5.49,2.99-10.21,2.99ZM52.81,227.19h17.49c-.05-6.14-3.64-9.18-7.93-9.18-5.11,0-8.74,2.99-9.56,9.18ZM63.56,210.24h-4.02l4.4-7.39h5.65l-6.03,7.39Z"/>
    <path class="cls-1" d="M95.01,226.05l7.44-11.35h4.94l-9.61,14.5,10.21,15.75h-5.54l-7.82-12.27-8.04,12.27h-5l10.27-15.42-9.61-14.83h5.54l7.22,11.35Z"/>
    <path class="cls-1" d="M115.81,206.49c0-1.74,1.3-2.93,3.2-2.93s3.26,1.2,3.26,2.93-1.41,3.04-3.26,3.04-3.2-1.25-3.2-3.04ZM121.52,244.95h-4.94v-30.25h4.94v30.25Z"/>
    <path class="cls-1" d="M155.46,221.7c-2.06-2.12-5.16-3.42-8.53-3.42-5.97,0-10.92,4.13-10.92,11.57s4.94,11.46,10.92,11.46c3.8,0,6.52-1.2,8.53-2.99v4.51c-1.14,1.09-4.02,2.71-8.85,2.71-8.36,0-15.48-5.65-15.48-15.7s7.11-15.75,15.59-15.75c4.4,0,7.22,1.3,8.74,2.55v5.05Z"/>
    <path class="cls-1" d="M163.45,229.79c0-9.12,6.19-15.81,14.88-15.81s14.94,6.68,14.94,15.81-6.19,15.75-14.94,15.75-14.88-6.68-14.88-15.75ZM188.38,229.79c0-6.68-3.69-11.68-10.05-11.68s-10.05,5-10.05,11.68,3.86,11.57,10.05,11.57,10.05-4.83,10.05-11.57Z"/>
    <path class="cls-1" d="M221.13,255.1l4.35-10.54-11.57-29.87h5.05l9.07,23.68,9.4-23.68h4.67l-16.13,40.41h-4.83Z"/>
    <path class="cls-1" d="M294.29,211.82c-2.17-1.96-5.54-3.75-10.97-3.75-7.98,0-14.94,6.03-14.94,16.62s6.73,16.51,14.94,16.51c4.89,0,8.26-1.3,10.97-3.64v5c-2.06,1.47-5.49,3.15-11.13,3.15-10.92,0-20.1-7.77-20.1-21.02s9.4-21.07,20.1-21.07c5.76,0,9.18,1.52,11.13,2.93v5.27Z"/>
    <path class="cls-1" d="M318.46,245.6c-9.18,0-16.02-5.54-16.02-15.64s6.46-15.97,14.56-15.97,13.63,5.6,12.82,16.84h-22.43c.33,6.95,4.78,10.54,11.41,10.54,3.97,0,7.66-1.19,9.89-3.26v4.51c-1.41,1.36-5.49,2.99-10.21,2.99ZM307.55,227.19h17.49c-.05-6.14-3.64-9.18-7.93-9.18-5.11,0-8.74,2.99-9.56,9.18Z"/>
    <path class="cls-1" d="M344.54,244.95h-4.94v-30.25h4.94v7.01c1.68-4.45,5.38-7.71,10.92-7.71,5.97,0,9.99,3.69,9.99,11.41v19.55h-4.89v-18.95c0-5.7-2.72-7.77-6.95-7.77-5.11,0-9.07,4.18-9.07,11.89v14.83Z"/>
    <path class="cls-1" d="M382.94,207.69v7.01h8.04v4.18h-8.04v16.78c0,4.18,1.63,5.59,4.62,5.54,1.63,0,2.88-.49,3.42-.87v4.07c-.6.43-1.9,1.03-4.4,1.03-5.05,0-8.64-2.66-8.64-9.07v-17.49h-3.96v-2.77c3.96-.6,5.21-2.44,5.81-8.42h3.15Z"/>
    <path class="cls-1" d="M405.97,244.95h-4.94v-30.25h4.89v7.55c1.52-5,5.27-7.93,10.37-7.66v5.21c-.38-.11-1.14-.22-1.79-.22-4.18,0-8.53,2.82-8.53,10.16v15.21Z"/>
    <path class="cls-1" d="M422.43,229.79c0-9.12,6.19-15.81,14.88-15.81s14.94,6.68,14.94,15.81-6.19,15.75-14.94,15.75-14.88-6.68-14.88-15.75ZM447.35,229.79c0-6.68-3.69-11.68-10.05-11.68s-10.05,5-10.05,11.68,3.86,11.57,10.05,11.57,10.05-4.83,10.05-11.57Z"/>
    <path class="cls-1" d="M478.7,239.68c-1.63,3.64-5,5.87-9.56,5.87-5.48,0-9.29-3.37-9.29-8.58s3.69-7.93,9.88-9.29c6.79-1.47,8.64-2.01,8.64-4.62.06-3.48-2.5-4.94-6.41-4.94-5.38,0-8.69,2.44-10.48,4.29v-4.78c1.52-1.52,5.16-3.69,10.97-3.69,7.17,0,11.13,3.37,11.13,10.7v20.31h-4.89v-5.27ZM478.64,227.73c-.81,1.09-2.71,1.85-6.79,2.82-4.73,1.14-7.22,2.61-7.22,6.25,0,3.04,2.01,5.11,6.03,5.11,5.27,0,7.98-4.02,7.98-8.04v-6.14Z"/>
    <path class="cls-1" d="M499.72,244.95h-4.94v-30.25h4.94v6.63c1.58-4.24,4.89-7.33,9.88-7.33,4.45,0,7.82,2.61,8.58,7.71,1.68-4.4,5.21-7.71,10.32-7.71,5.43,0,9.18,3.53,9.18,10.7v20.26h-5v-19.66c0-5.11-2.17-7.06-5.81-7.06-4.62,0-8.2,4.13-8.2,11.73v14.99h-5v-19.66c0-5.11-2.17-7.06-5.81-7.06-4.62,0-8.15,4.13-8.15,11.73v14.99Z"/>
    <path class="cls-1" d="M562.99,245.6c-9.18,0-16.02-5.54-16.02-15.64s6.46-15.97,14.56-15.97,13.63,5.6,12.82,16.84h-22.43c.33,6.95,4.78,10.54,11.41,10.54,3.96,0,7.66-1.19,9.88-3.26v4.51c-1.41,1.36-5.48,2.99-10.21,2.99ZM552.08,227.19h17.49c-.06-6.14-3.64-9.18-7.93-9.18-5.11,0-8.74,2.99-9.56,9.18ZM562.83,210.24h-4.02l4.4-7.39h5.65l-6.03,7.39Z"/>
    <path class="cls-1" d="M589.06,244.95h-4.94v-30.25h4.89v7.55c1.52-5,5.27-7.93,10.37-7.66v5.21c-.38-.11-1.14-.22-1.79-.22-4.18,0-8.53,2.82-8.53,10.16v15.21Z"/>
    <path class="cls-1" d="M607.7,206.49c0-1.74,1.3-2.93,3.2-2.93s3.26,1.2,3.26,2.93-1.41,3.04-3.26,3.04-3.2-1.25-3.2-3.04ZM613.4,244.95h-4.94v-30.25h4.94v30.25Z"/>
    <path class="cls-1" d="M647.34,221.7c-2.06-2.12-5.16-3.42-8.53-3.42-5.97,0-10.92,4.13-10.92,11.57s4.94,11.46,10.92,11.46c3.8,0,6.52-1.2,8.53-2.99v4.51c-1.14,1.09-4.02,2.71-8.85,2.71-8.37,0-15.48-5.65-15.48-15.7s7.11-15.75,15.59-15.75c4.4,0,7.22,1.3,8.74,2.55v5.05Z"/>
    <path class="cls-1" d="M674.23,239.68c-1.63,3.64-5,5.87-9.56,5.87-5.48,0-9.29-3.37-9.29-8.58s3.69-7.93,9.89-9.29c6.79-1.47,8.64-2.01,8.64-4.62.05-3.48-2.5-4.94-6.41-4.94-5.38,0-8.69,2.44-10.48,4.29v-4.78c1.52-1.52,5.16-3.69,10.97-3.69,7.17,0,11.13,3.37,11.13,10.7v20.31h-4.89v-5.27ZM674.18,227.73c-.81,1.09-2.72,1.85-6.79,2.82-4.73,1.14-7.22,2.61-7.22,6.25,0,3.04,2.01,5.11,6.03,5.11,5.27,0,7.98-4.02,7.98-8.04v-6.14Z"/>
  </g>
  <g>
    <g>
      <g>
        <polygon class="cls-1" points="133.83 45.16 117.48 127.09 99.12 45.16 67.25 45.16 48.89 127.09 32.54 45.16 0 45.16 26.53 170.31 64.41 170.31 82.93 87.21 101.46 170.31 138.5 170.31 164.87 45.16 133.83 45.16"/>
        <path class="cls-1" d="M204.67,68.19c-20.19,0-34.38,6.84-39.55,11.68v26.7c6.01-5.34,18.69-13.18,35.38-13.18,10.35,0,14.18,2.84,14.18,8.68,0,5.01-5.34,7.01-20.19,10.18-22.53,4.67-35.54,12.85-35.54,32.37,0,18.02,11.85,28.53,29.04,28.53,14.39,0,22.99-6.68,27.7-15.65v12.81h31.04v-61.41c0-28.2-14.68-40.72-42.05-40.72ZM200.33,152.96c-7.34,0-11.35-4.51-11.35-10.68,0-8.01,6.34-11.18,14.35-14.02,4.18-1.57,8.35-3.2,11.18-5.67v13.85c0,10.51-5.51,16.52-14.18,16.52Z"/>
      </g>
      <rect class="cls-1" x="258.33" y="45.16" width="32.21" height="125.15"/>
    </g>
    <path class="cls-1" d="M419.79,68.52c-15.63,0-25.72,9.39-31,21.9-2.83-13.4-12.25-21.9-25.4-21.9-14.9,0-24.62,8.69-29.54,20.9v-18.06h-31.71v98.95h32.21v-54.9c0-13.52,4.51-21.19,14.18-21.19,7.84,0,10.51,5.34,10.51,13.68v62.41h32.21v-54.9c0-13.52,4.51-21.19,14.18-21.19,7.84,0,10.51,5.34,10.51,13.68v62.41h32.21v-66.91c0-20.86-9.85-34.88-28.37-34.88Z"/>
    <path class="cls-1" d="M500.89,68.19c-20.19,0-34.38,6.84-39.55,11.68v26.7c6.01-5.34,18.69-13.18,35.38-13.18,10.35,0,14.18,2.84,14.18,8.68,0,5.01-5.34,7.01-20.19,10.18-22.53,4.67-35.54,12.85-35.54,32.37,0,18.02,11.85,28.53,29.04,28.53,14.39,0,22.99-6.68,27.7-15.65v12.81h31.04v-61.41c0-28.2-14.68-40.72-42.05-40.72ZM496.55,152.96c-7.34,0-11.35-4.51-11.35-10.68,0-8.01,6.34-11.18,14.35-14.02,4.18-1.57,8.35-3.2,11.18-5.67v13.85c0,10.51-5.51,16.52-14.18,16.52Z"/>
    <path class="cls-1" d="M585.5,99.32v-27.96h-31.54v98.95h32.21v-42.05c0-19.36,12.01-24.53,23.53-24.53,3.84,0,7.51.5,9.18,1v-34.04c-18.12-.87-29.13,10.7-33.37,28.62Z"/>
    <path class="cls-1" d="M680.28,96.39v-25.03h-20.53v-19.19h-32.21v85.1c0,23.86,13.52,35.04,35.04,35.04,10.01,0,15.35-2,17.69-3.5v-24.86c-1.84,1.33-4.84,2.34-8.68,2.34-7.18.17-11.85-3-11.85-13.52v-36.38h20.53Z"/>
  </g>
  <g>
    <path class="cls-2" d="M847.25,98.94c4.53-.93,44.57-19.28,48.14-21.34,8.16-4.71,10.96-15.15,6.24-23.31-4.71-8.16-15.15-10.96-23.31-6.24-3.57,2.06-39.48,27.57-42.55,31.02-3.52,3.96-4.13,9.62-1.52,14.13,2.6,4.51,7.81,6.81,13,5.74Z"/>
    <path class="cls-2" d="M895.39,139.56c-3.57-2.06-43.62-20.41-48.14-21.34-5.19-1.07-10.39,1.24-13,5.74-2.6,4.51-1.99,10.17,1.52,14.13,3.07,3.45,38.98,28.96,42.55,31.02,8.16,4.71,18.59,1.92,23.31-6.24,4.71-8.16,1.92-18.59-6.24-23.31Z"/>
    <path class="cls-2" d="M807.61,139.34c-5.2,0-9.8,3.36-11.47,8.38-1.46,4.39-5.59,48.24-5.59,52.36,0,9.42,7.64,17.06,17.06,17.06s17.06-7.64,17.06-17.06c0-4.13-4.13-47.98-5.59-52.36-1.67-5.03-6.27-8.38-11.47-8.38Z"/>
    <path class="cls-2" d="M767.96,118.22c-4.53.93-44.57,19.28-48.14,21.34-8.16,4.71-10.96,15.15-6.24,23.31,4.71,8.16,15.15,10.96,23.31,6.24,3.57-2.06,39.48-27.57,42.55-31.02,3.52-3.96,4.13-9.62,1.52-14.13-2.6-4.51-7.81-6.81-13-5.74Z"/>
    <path class="cls-2" d="M736.88,48.04c-8.16-4.71-18.59-1.92-23.31,6.24-4.71,8.16-1.92,18.59,6.24,23.31,3.57,2.06,43.62,20.41,48.14,21.34,5.19,1.07,10.39-1.24,13-5.74,2.6-4.51,1.99-10.17-1.52-14.13-3.07-3.45-38.98-28.96-42.55-31.02Z"/>
    <path class="cls-2" d="M807.61,0c-9.42,0-17.06,7.64-17.06,17.06,0,4.13,4.13,47.98,5.59,52.36,1.67,5.03,6.27,8.38,11.47,8.38s9.8-3.36,11.47-8.38c1.46-4.39,5.59-48.24,5.59-52.36,0-9.42-7.64-17.06-17.06-17.06Z"/>
  </g>
</svg>